<?xml version="1.0" encoding="UTF-8" standalone="no" ?>
<!DOCTYPE svg PUBLIC "-//W3C//DTD SVG 1.1//EN" "http://www.w3.org/Graphics/SVG/1.1/DTD/svg11.dtd">
<svg xmlns="http://www.w3.org/2000/svg" xmlns:xlink="http://www.w3.org/1999/xlink" version="1.1" width="1080" height="1080" viewBox="0 0 1080 1080" xml:space="preserve">
<desc>Created with Fabric.js 5.2.4</desc>
<defs>
</defs>
<g transform="matrix(1 0 0 1 540 540)" id="c9687e35-109c-4bf9-a477-6400fa67f260"  >
<rect style="stroke: none; stroke-width: 1; stroke-dasharray: none; stroke-linecap: butt; stroke-dashoffset: 0; stroke-linejoin: miter; stroke-miterlimit: 4; fill: rgb(255,255,255); fill-rule: nonzero; opacity: 1; visibility: hidden;" vector-effect="non-scaling-stroke"  x="-540" y="-540" rx="0" ry="0" width="1080" height="1080" />
</g>
<g transform="matrix(1 0 0 1 540 540)" id="2c1b63da-328d-4546-ae58-eef371f64f8c"  >
</g>
<g transform="matrix(1 0 0 1 540 540)"  >
<rect style="stroke: none; stroke-width: 1; stroke-dasharray: none; stroke-linecap: butt; stroke-dashoffset: 0; stroke-linejoin: miter; stroke-miterlimit: 4; fill: rgb(255,255,255); fill-rule: nonzero; opacity: 1; visibility: hidden;" vector-effect="non-scaling-stroke"  x="-540" y="-540" rx="0" ry="0" width="1080" height="1080" />
</g>
<g transform="matrix(33.6 0 0 33.6 541.58 541.67)"  >
<path style="stroke: none; stroke-width: 1; stroke-dasharray: none; stroke-linecap: butt; stroke-dashoffset: 0; stroke-linejoin: miter; stroke-miterlimit: 4; fill: rgb(243,181,59); fill-rule: evenodd; opacity: 1;" vector-effect="non-scaling-stroke"  transform=" translate(-115.08, -15.73)" d="M 114.2 10.6 C 114.94 10.6 115.54 10.209999999999999 115.63000000000001 9.719999999999999 L 116.35000000000001 1.4799999999999986 C 116.35000000000001 0.6699999999999986 115.4 -1.3322676295501878e-15 114.2 -1.3322676295501878e-15 C 113 -1.3322676295501878e-15 112.05 0.6699999999999987 112.05 1.4799999999999986 L 112.78 9.719999999999999 C 112.86 10.219999999999999 113.47 10.589999999999998 114.2 10.589999999999998 M 109.75 13.169999999999998 C 110.12 12.529999999999998 110.09 11.809999999999999 109.7 11.489999999999998 L 102.93 6.749999999999998 C 102.23 6.339999999999998 101.18 6.829999999999998 100.58000000000001 7.869999999999998 C 99.98000000000002 8.909999999999998 100.08000000000001 10.069999999999999 100.78000000000002 10.469999999999999 L 108.28000000000002 13.959999999999999 C 108.75000000000001 14.129999999999999 109.38000000000001 13.799999999999999 109.75000000000001 13.159999999999998 M 118.65000000000002 13.159999999999998 C 119.02000000000002 13.799999999999999 119.65000000000002 14.129999999999999 120.13000000000002 13.959999999999999 L 127.62000000000002 10.469999999999999 C 128.32000000000002 10.069999999999999 128.42000000000002 8.909999999999998 127.83000000000001 7.869999999999999 C 127.23000000000002 6.829999999999999 126.17000000000002 6.339999999999999 125.47000000000001 6.749999999999999 L 118.70000000000002 11.489999999999998 C 118.32000000000002 11.809999999999999 118.29000000000002 12.529999999999998 118.66000000000001 13.169999999999998 M 114.20000000000002 20.869999999999997 C 114.94000000000001 20.869999999999997 115.54000000000002 21.259999999999998 115.63000000000002 21.749999999999996 L 116.35000000000002 29.989999999999995 C 116.35000000000002 30.799999999999994 115.40000000000002 31.469999999999995 114.20000000000002 31.469999999999995 C 113.00000000000001 31.469999999999995 112.05000000000001 30.799999999999994 112.05000000000001 29.989999999999995 L 112.78000000000002 21.749999999999993 C 112.86000000000001 21.249999999999993 113.47000000000001 20.879999999999992 114.20000000000002 20.879999999999992 M 118.65000000000002 18.30999999999999 C 119.02000000000002 17.66999999999999 119.65000000000002 17.339999999999993 120.13000000000002 17.50999999999999 L 127.62000000000002 20.999999999999993 C 128.32000000000002 21.39999999999999 128.42000000000002 22.569999999999993 127.83000000000001 23.599999999999994 C 127.23000000000002 24.639999999999993 126.17000000000002 25.129999999999995 125.47000000000001 24.719999999999995 L 118.70000000000002 19.979999999999997 C 118.32000000000002 19.659999999999997 118.29000000000002 18.939999999999998 118.66000000000001 18.309999999999995 M 109.75000000000001 18.309999999999995 C 110.12000000000002 18.939999999999994 110.09000000000002 19.659999999999997 109.70000000000002 19.979999999999997 L 102.93000000000002 24.72 C 102.23000000000002 25.119999999999997 101.18000000000002 24.64 100.58000000000003 23.599999999999998 C 99.98000000000003 22.56 100.08000000000003 21.4 100.78000000000003 20.999999999999996 L 108.28000000000003 17.509999999999998 C 108.75000000000003 17.339999999999996 109.38000000000002 17.669999999999998 109.75000000000003 18.31 M 129.2 24 L 129.26999999999998 24 C 129.35 24 129.42 23.97 129.42 23.9 C 129.42 23.84 129.38 23.799999999999997 129.28 23.799999999999997 L 129.2 23.799999999999997 L 129.2 23.999999999999996 z M 129.2 24.36 L 129.04 24.36 L 129.04 23.71 L 129.29 23.69 C 129.42 23.69 129.47 23.71 129.51999999999998 23.740000000000002 C 129.55999999999997 23.770000000000003 129.58999999999997 23.82 129.58999999999997 23.880000000000003 C 129.58999999999997 23.96 129.52999999999997 24.01 129.45 24.040000000000003 C 129.51 24.060000000000002 129.54999999999998 24.12 129.57 24.200000000000003 C 129.59 24.300000000000004 129.6 24.340000000000003 129.62 24.360000000000003 L 129.46 24.360000000000003 C 129.44 24.340000000000003 129.42000000000002 24.280000000000005 129.4 24.210000000000004 C 129.39000000000001 24.140000000000004 129.35 24.110000000000003 129.27 24.110000000000003 L 129.19 24.110000000000003 L 129.19 24.370000000000005 z M 129.29999999999998 23.5 C 128.99999999999997 23.5 128.79 23.74 128.79 24.03 C 128.79 24.32 129.01 24.55 129.29999999999998 24.55 C 129.58999999999997 24.55 129.79999999999998 24.32 129.79999999999998 24.03 C 129.80827865080767 23.892274809146237 129.7592781134243 23.75725022754466 129.66459768649753 23.656888975002303 C 129.5699172595708 23.55652772245995 129.43797355709634 23.499751409812216 129.29999999999998 23.5 z M 129.29999999999998 23.37 C 129.67999999999998 23.37 129.96999999999997 23.66 129.96999999999997 24.03 C 129.96999999999997 24.400000000000002 129.66999999999996 24.69 129.29999999999998 24.69 C 129.12151813164604 24.695411045284803 128.9484601689596 24.628271699285065 128.82032618146954 24.503906358485903 C 128.6921921939795 24.379541017686744 128.6199179953499 24.208563854173875 128.61999999999998 24.03 C 128.61999999999998 23.66 128.92 23.37 129.29999999999998 23.37 z" stroke-linecap="round" />
</g>
</svg>